<svg xmlns="http://www.w3.org/2000/svg" width="1780.459" height="900.459" viewBox="0 0 1780.459 900.459"><defs><style>.a{fill:#9781ff;}</style></defs><g transform="translate(-50.153 -142.689)"><rect class="a" width="28" height="107" rx="14" transform="translate(1456.153 162.488) rotate(-45)"/><rect class="a" width="28" height="107" rx="14" transform="translate(1735.153 310.488) rotate(-45)"/><rect class="a" width="28" height="107" rx="14" transform="translate(267.153 949.488) rotate(-45)"/><rect class="a" width="28" height="107" rx="14" transform="translate(50.153 490.488) rotate(-45)"/><rect class="a" width="28" height="107" rx="14" transform="translate(334.153 192.488) rotate(-45)"/><rect class="a" width="28" height="107" rx="14" transform="translate(1702.153 704.488) rotate(-45)"/><rect class="a" width="28" height="107" rx="14" transform="translate(1179.153 967.488) rotate(-45)"/><rect class="a" width="28" height="107" rx="14" transform="translate(1414.153 559.488) rotate(-45)"/><rect class="a" width="28" height="107" rx="14" transform="translate(901.153 688.488) rotate(-45)"/><rect class="a" width="28" height="107" rx="14" transform="translate(417.153 476.488) rotate(-45)"/></g></svg>