<svg id="Camada_1" data-name="Camada 1" xmlns="http://www.w3.org/2000/svg" xmlns:xlink="http://www.w3.org/1999/xlink" viewBox="0 0 1562 851.5"><defs><style>.cls-1{fill:#e2c191;}.cls-2{fill:#ffe780;}.cls-3{fill:#cebb6e;}.cls-4{fill:#997c67;}.cls-5{fill:#fff;}.cls-6{fill:#e4e4e4;stroke:#e4e4e4;stroke-width:0.6px;}.cls-13,.cls-6{stroke-miterlimit:10;}.cls-7{fill:#110b2e;}.cls-8{fill:#924b25;}.cls-9{fill:#ff8432;}.cls-10{fill:#ff6a00;}.cls-11{fill:#fdfcfa;}.cls-12{fill:#074e40;}.cls-13{fill:none;stroke:#f0f;stroke-width:0.5px;}.cls-14{fill:#403a61;}.cls-15{fill:#362c56;}.cls-16{fill:#e7e7e7;}.cls-17{fill:#fe6c09;}.cls-18{fill:#059aaa;}.cls-19{fill:#332c57;}.cls-20{fill:#d3d3d3;}.cls-21{fill:#f7c288;}.cls-22{fill:#f2993b;}.cls-23{fill:#fe6800;}.cls-24{fill:#8f4c27;}.cls-25{fill:#3c375e;}.cls-26{fill:#b3e6b8;}.cls-27{fill:#b3dbdd;}.cls-28{fill:#f6c289;}.cls-29{fill:#282342;}.cls-30{fill:#3d385f;}.cls-31{fill:#f19939;}.cls-32{fill:#8c889f;}.cls-33{fill:#5c2e1a;}.cls-34{fill:#7c5b4a;}.cls-35{fill:#02493f;}.cls-36{fill:#00786b;}.cls-37{fill:#8e44ad;}.cls-38{fill:#ab6ace;}.cls-39,.cls-41,.cls-43{opacity:0.5;}.cls-39{fill:url(#linear-gradient);}.cls-40{fill:#fffeff;}.cls-41{fill:url(#linear-gradient-2);}.cls-42{fill:url(#linear-gradient-3);}.cls-43{fill:url(#linear-gradient-4);}.cls-44{fill:#efefef;}.cls-45{fill:#01796d;}.cls-46{fill:#f29a39;}.cls-47{fill:#f5ae60;}</style><linearGradient id="linear-gradient" x1="503.71" y1="333.17" x2="503.71" y2="268.35" gradientUnits="userSpaceOnUse"><stop offset="0" stop-color="#fff" stop-opacity="0"/><stop offset="0.14" stop-color="#fff" stop-opacity="0.18"/><stop offset="0.38" stop-color="#fff" stop-opacity="0.47"/><stop offset="0.59" stop-color="#fff" stop-opacity="0.7"/><stop offset="0.77" stop-color="#fff" stop-opacity="0.86"/><stop offset="0.92" stop-color="#fff" stop-opacity="0.96"/><stop offset="1" stop-color="#fff"/></linearGradient><linearGradient id="linear-gradient-2" x1="901.53" y1="333.17" x2="901.53" y2="268.35" xlink:href="#linear-gradient"/><linearGradient id="linear-gradient-3" x1="11128.86" y1="659.35" x2="11128.86" y2="518.96" gradientTransform="matrix(-1, 0, 0, 1, 11607.66, 0)" gradientUnits="userSpaceOnUse"><stop offset="0" stop-color="#c7c7c7"/><stop offset="1" stop-color="#fff"/></linearGradient><linearGradient id="linear-gradient-4" x1="11141.41" y1="632.37" x2="11141.41" y2="447.41" xlink:href="#linear-gradient-3"/></defs><title>bgHome</title><rect class="cls-1" y="1.48" width="1561.19" height="836.02"/><rect class="cls-1" x="509.81" y="1.7" width="0.41" height="837.88"/><rect class="cls-1" x="23.91" y="1.7" width="0.41" height="837.88"/><rect class="cls-1" x="148.14" y="1.7" width="0.41" height="837.88"/><rect class="cls-1" x="328.31" y="1.7" width="0.41" height="837.88"/><rect class="cls-1" x="687.41" y="1.7" width="0.41" height="837.88"/><rect class="cls-1" x="867.99" y="1.7" width="0.41" height="837.88"/><rect class="cls-1" x="1048.98" y="1.7" width="0.41" height="837.88"/><rect class="cls-1" x="1226.68" y="1.7" width="0.41" height="837.88"/><rect class="cls-1" x="1405.61" y="1.7" width="0.41" height="837.88"/><rect class="cls-1" x="1561.11" y="13.62" width="0.41" height="837.88"/><rect class="cls-1" x="1543.83" width="0.41" height="837.88"/><rect class="cls-1" x="3.81" y="764.47" width="1558.19" height="71.17"/><ellipse class="cls-1" cx="546.57" cy="808.85" rx="197.52" ry="8.91"/><ellipse class="cls-1" cx="496.71" cy="784.21" rx="396.31" ry="8.91"/><polygon class="cls-1" points="333.54 783.15 114.67 783.15 117.1 507.71 329.65 507.71 333.54 783.15"/><path class="cls-1" d="M123.68,775.86l4.08-45.26,197.36,5.56,0,.26,2.7,34.54h-.32Zm4.63-44.65-4,44,202.85-4.87-2.64-33.66Z" transform="translate(-1 1.5)"/><rect class="cls-1" x="193.42" y="742.71" width="49.28" height="3.91"/><rect class="cls-1" x="193.42" y="662.64" width="49.28" height="3.91"/><rect class="cls-1" x="193.42" y="582.13" width="49.28" height="3.91"/><rect class="cls-1" x="193.42" y="522.81" width="49.28" height="3.91"/><path class="cls-1" d="M324.5,708.38H125.38V646.51h.3l192.73-2.29,0,.27ZM126,707.79H323.83l-6-63L126,647.1Z" transform="translate(-1 1.5)"/><path class="cls-1" d="M328.85,615.48H123.69l0-.31,3-48.2h197.7l0,.27Zm-204.52-.59H328.19l-4.3-47.33H127.31Z" transform="translate(-1 1.5)"/><path class="cls-1" d="M123.69,548.34l0-.32,1.69-33.2h.29l191.74,2.61v24.05ZM126,515.41l-1.64,32.32,192.49-6.82V518Z" transform="translate(-1 1.5)"/><polygon class="cls-1" points="111.95 500.51 844.15 500.51 844.15 512.43 111.95 507.71 111.95 500.51"/><path class="cls-1" d="M178.91,490.45c23.61,1.37,82.29-8.77,105.08-12.93l-127.66-5.77C156.25,477.22,158.44,489.26,178.91,490.45Z" transform="translate(-1 1.5)"/><path class="cls-1" d="M284,477.52c-22.79,4.16-81.47,14.3-105.08,12.93-20.47-1.19-22.66-13.23-22.58-18.7l-2.06-.09L146.77,499H288.31l-.59-21.33Z" transform="translate(-1 1.5)"/><polygon class="cls-1" points="254.71 497.28 241.52 497.28 242.7 479.29 254.71 479.88 254.71 497.28"/><ellipse class="cls-1" cx="267.99" cy="490.13" rx="4.93" ry="4.79"/><polygon class="cls-1" points="289.44 454.53 160.36 458.76 158.79 447.72 288.94 441.39 289.44 454.53"/><polygon class="cls-1" points="264.18 445.26 160.94 448.99 162.65 454.52 264.18 445.26"/><ellipse class="cls-1" cx="382.55" cy="301.26" rx="3.08" ry="2.99"/><ellipse class="cls-1" cx="382.55" cy="301.26" rx="6.82" ry="6.63"/><path class="cls-1" d="M383.31,235.7c-36.38,0-65.88,28.68-65.88,64.06s29.5,64.06,65.88,64.06,65.89-28.68,65.89-64.06S419.7,235.7,383.31,235.7Zm0,121.53c-32.64,0-59.1-25.73-59.1-57.47s26.46-57.47,59.1-57.47,59.11,25.73,59.11,57.47S416,357.23,383.31,357.23Z" transform="translate(-1 1.5)"/><path class="cls-1" d="M390.13,251.19a59.71,59.71,0,0,1,43.8,18.88,59.45,59.45,0,0,0-50.62-27.78c-32.64,0-59.1,25.73-59.1,57.47a56.34,56.34,0,0,0,15.31,38.59,56,56,0,0,1-8.5-29.69C331,276.92,357.49,251.19,390.13,251.19Z" transform="translate(-1 1.5)"/><path class="cls-1" d="M383.31,357.23c32.65,0,59.11-25.73,59.11-57.47a56,56,0,0,0-8.49-29.69,59.71,59.71,0,0,0-43.8-18.88c-32.64,0-59.11,25.73-59.11,57.47a56,56,0,0,0,8.5,29.69A59.69,59.69,0,0,0,383.31,357.23Z" transform="translate(-1 1.5)"/><rect class="cls-1" x="380.19" y="249.24" width="4.73" height="10.97"/><rect class="cls-1" x="380.19" y="340.13" width="4.73" height="10.97"/><rect class="cls-1" x="424.77" y="297.76" width="11.28" height="4.6"/><rect class="cls-1" x="331.29" y="297.76" width="11.28" height="4.6"/><polygon class="cls-1" points="403.18 314.83 397.86 318.52 346 272.72 350.29 272.24 403.18 314.83"/><polygon class="cls-1" points="363.93 316.02 361.42 310.6 415.25 278.04 415.98 280.92 363.93 316.02"/><path class="cls-1" d="M237.45,192.67H94L91.18,332.52h149.9ZM231,325.06H101.28V198.56H231Z" transform="translate(-1 1.5)"/><path class="cls-1" d="M101.28,325.06H231V198.56H101.28ZM124.7,218.22l82.44,1.59c5.26,16.54,5.26,84.43,5.26,84.43H124.31Z" transform="translate(-1 1.5)"/><path class="cls-1" d="M207.14,219.81l-82.44-1.59-.39,86H212.4S212.4,236.35,207.14,219.81Z" transform="translate(-1 1.5)"/><polygon class="cls-1" points="137.86 289.32 198.06 289.32 165.13 245.24 137.86 289.32"/><path class="cls-1" d="M237.45,192.67H94L91.18,332.52h149.9ZM231,325.06H101.28V198.56H231Z" transform="translate(-1 1.5)"/><path class="cls-1" d="M101.28,325.06H231V198.56H101.28ZM124.7,218.22l82.44,1.59c5.26,16.54,5.26,84.43,5.26,84.43H124.31Z" transform="translate(-1 1.5)"/><path class="cls-1" d="M207.14,219.81l-82.44-1.59-.39,86H212.4S212.4,236.35,207.14,219.81Z" transform="translate(-1 1.5)"/><polygon class="cls-1" points="137.86 289.32 198.06 289.32 165.13 245.24 137.86 289.32"/><path class="cls-1" d="M237.45,192.67H94L91.18,332.52h149.9ZM231,325.06H101.28V198.56H231Z" transform="translate(-1 1.5)"/><path class="cls-1" d="M101.28,325.06H231V198.56H101.28ZM124.7,218.22l82.44,1.59c5.26,16.54,5.26,84.43,5.26,84.43H124.31Z" transform="translate(-1 1.5)"/><path class="cls-1" d="M207.14,219.81l-82.44-1.59-.39,86H212.4S212.4,236.35,207.14,219.81Z" transform="translate(-1 1.5)"/><polygon class="cls-1" points="137.86 289.32 198.06 289.32 165.13 245.24 137.86 289.32"/><path class="cls-1" d="M341.43,420.17s-14.27,3.61-14.27,8.74c0,0-1.56,5.88,12.9,6.27s13.49,9.51,5.09,12-8.8,8.36-8.8,8.36,1.76-5.13,9.77-5.51,12-3.53,11.34-10.12c-.78-7.93-15.64-6.79-19-6.79S326,429.67,341.43,420.17Z" transform="translate(-1 1.5)"/><path class="cls-1" d="M324.82,471.38c0,5.52-3.8,10-8.48,10s-8.48-4.47-8.48-10,3.8-10,8.48-10S324.82,465.87,324.82,471.38ZM316.31,466a5.37,5.37,0,1,0,5,5.36A5.18,5.18,0,0,0,316.31,466Z" transform="translate(-1 1.5)"/><polygon class="cls-1" points="752.19 342.11 744.49 252.19 725.59 252.19 728.58 340.32 752.19 342.11"/><polygon class="cls-1" points="745.45 263.37 768.61 258.95 779.05 342.11 752.19 342.11 745.45 263.37"/><polygon class="cls-1" points="770.59 340.18 756.42 340.18 748.96 265.48 765.87 262.34 770.59 340.18"/><polygon class="cls-1" points="777.56 340.96 794.21 340.96 791.27 279.74 777.56 279.74 777.56 340.96"/><polygon class="cls-1" points="777.56 267.42 777.56 279.74 791.27 279.74 790.67 267.42 777.56 267.42"/><polygon class="cls-1" points="789.99 253.15 777.56 253.15 777.56 267.42 790.67 267.42 789.99 253.15"/><path class="cls-1" d="M780.05,280.07h9.45s6,40.54,1.24,49.33-8.63,9.28-8.63,9.28Z" transform="translate(-1 1.5)"/><polygon class="cls-1" points="797.94 244.93 817.34 244.93 828.27 341.63 800.68 341.63 797.94 244.93"/><polygon class="cls-1" points="806.15 258.95 813.11 258.95 822.06 336.07 807.39 336.07 806.15 258.95"/><path class="cls-1" d="M731.81,278.25v57.53S744.49,313.3,744.49,299,736.12,278.76,731.81,278.25Z" transform="translate(-1 1.5)"/><ellipse class="cls-1" cx="735.78" cy="267.42" rx="5.22" ry="5.08"/><polygon class="cls-1" points="692.37 467.51 510.22 467.51 508.86 344.26 694.75 344.26 692.37 467.51"/><polygon class="cls-1" points="614.74 354.26 614.74 460.99 516.35 460.99 514.41 354.5 614.74 354.26"/><polygon class="cls-1" points="688.29 348.77 688.29 457.02 618.83 455.77 618.83 348.77 688.29 348.77"/><polygon class="cls-1" points="646.12 407.12 682.82 407.12 684.94 357.37 646.12 357.37 646.12 407.12"/><polygon class="cls-1" points="649.15 399.54 680.24 399.54 681.61 362.09 649.15 362.09 649.15 399.54"/><polygon class="cls-1" points="623.67 449.83 681.61 449.83 684.94 415.03 625.34 415.03 623.67 415.03 623.67 449.83"/><polygon class="cls-1" points="627.61 444.52 679.94 446.73 680.7 416.8 627.61 416.8 627.61 444.52"/><rect class="cls-1" x="520.38" y="425.35" width="86.3" height="30.38"/><rect class="cls-1" x="531.61" y="427.41" width="71.44" height="25.22"/><polygon class="cls-1" points="584.54 495.15 584.54 470.38 617 470.38 617 495.4 584.54 495.4 584.54 495.15"/><polyline class="cls-1" points="563.69 501.75 563.69 493.11 639.87 495.4 639.87 501.03"/><path class="cls-1" d="M503.73,340.78V467.83a3.59,3.59,0,0,0,3.64,3.54h188a3.59,3.59,0,0,0,3.64-3.54l1.21-129.41a3.59,3.59,0,0,0-3.64-3.54l-189.17,2.36A3.59,3.59,0,0,0,503.73,340.78Zm6.12,2h185.9L693.37,466H511.22Z" transform="translate(-1 1.5)"/><polygon class="cls-1" points="610.2 358.86 610.2 367.89 576.04 366.18 576.04 358.86 610.2 358.86"/><polygon class="cls-1" points="610.2 371.8 610.2 380.81 576.04 382.24 576.04 371.8 610.2 371.8"/><polygon class="cls-1" points="597.13 392.2 597.13 385.83 576.04 383.77 576.04 392.2 597.13 392.2"/><polygon class="cls-1" points="572.02 358.86 517.76 358.86 517.76 410.63 570.26 409.65 572.02 358.86"/><polygon class="cls-1" points="557.2 399.54 520.38 399.54 520.38 362.09 559.96 362.09 557.2 399.54"/><polygon class="cls-1" points="517.76 420.63 517.76 415.03 572.02 413.56 572.02 419.66 517.76 420.63"/><polygon class="cls-1" points="514.3 348.77 614.74 348.77 614.74 354.26 514.41 354.5 514.3 348.77"/><rect class="cls-1" x="530.2" y="350.06" width="3.09" height="3"/><rect class="cls-1" x="523.25" y="350.06" width="3.09" height="3"/><rect class="cls-1" x="516.3" y="350.06" width="3.09" height="3"/><rect class="cls-1" x="598.94" y="350.38" width="2.86" height="2.78"/><polygon class="cls-1" points="755.65 510.64 761.13 532.14 767.27 532.14 700.34 782.87 709.33 782.87 778.97 533.53 780.97 533.53 856.18 784.81 867.88 783.84 790.96 532.7 800.09 532.7 802.8 510.64 755.65 510.64"/><polygon class="cls-1" points="761.42 521.18 762.85 530.34 798.1 530.34 798.95 519.38 761.42 521.18"/><polygon class="cls-1" points="722.5 728.76 840.11 723.22 845.04 737.98 720.42 736.32 722.5 728.76"/><polygon class="cls-1" points="342.57 461.66 321.21 461.66 320.34 498.72 339.11 497.91 342.57 461.66"/><polygon class="cls-1" points="353.89 497.28 348.63 461.66 342.57 461.66 339.11 497.91 353.89 497.28"/><polygon class="cls-1" points="342.85 458.76 321.28 458.76 321.21 461.66 342.57 461.66 342.85 458.76"/><polygon class="cls-1" points="320.34 498.72 320.3 500.51 338.86 500.51 339.11 497.91 320.34 498.72"/><polygon class="cls-1" points="351.96 458.76 342.85 458.76 342.57 461.66 348.63 461.66 353.89 497.28 339.11 497.91 338.86 500.51 356.53 500.51 351.96 458.76"/><polygon class="cls-1" points="167.92 457.84 165.34 460.61 280.79 457.84 295.66 457.47 294.3 436.68 155.99 445.52 159.02 460.71 160.94 460.71 165.34 460.61 167.92 457.84"/><polygon class="cls-1" points="164.29 473.41 282.99 479.02 282.38 473.14 164.5 470.63 164.29 473.41"/><polygon class="cls-1" points="160.94 460.71 165.24 460.71 165.34 460.61 160.94 460.71"/><polygon class="cls-1" points="165.34 460.61 165.24 460.71 280.79 457.84 165.34 460.61"/><polygon class="cls-1" points="280.79 457.84 165.24 460.71 164.5 470.63 282.38 473.14 280.81 457.84 280.79 457.84"/><path class="cls-1" d="M546.14,264.82V237.9c0-22-18.36-39.88-41-39.88h0c-22.65,0-41,17.85-41,39.88v26.92Z" transform="translate(-1 1.5)"/><path class="cls-1" d="M522.88,212.18s-12-15.57-32.71-3c-17.21,10.45-25.56,30.31-22.75,52.18,0,0,87.69-1.64,55.46-49.2Z" transform="translate(-1 1.5)"/><polyline class="cls-1" points="517.8 203.08 517.15 171.76 505.18 169.71 505.18 1.26 501.79 1.26 501.79 169.71 489.82 171.76 489.17 203.08"/><path class="cls-1" d="M492.86,197.34s2.47-.38,9.73-1.8V175.18h-7.68a2.09,2.09,0,0,0-1.34,1.81C493.57,178.3,492.86,197.34,492.86,197.34Z" transform="translate(-1 1.5)"/><polygon class="cls-1" points="514.11 333.17 559.41 333.17 545.49 268.35 514.11 268.35 493.31 268.35 461.93 268.35 448.01 333.17 493.31 333.17 514.11 333.17"/><path class="cls-1" d="M461.51,268.09a.8.8,0,0,0,.81.79h84.82a.79.79,0,0,0,.8-.79V265.6a.79.79,0,0,0-.8-.78H462.32a.79.79,0,0,0-.81.78Z" transform="translate(-1 1.5)"/><path class="cls-1" d="M944,264.82V237.9c0-22-18.37-39.88-41-39.88h0c-22.66,0-41,17.85-41,39.88v26.92Z" transform="translate(-1 1.5)"/><path class="cls-1" d="M920.7,212.18s-12-15.57-32.71-3c-17.22,10.45-25.56,30.31-22.75,52.18,0,0,87.68-1.64,55.46-49.2Z" transform="translate(-1 1.5)"/><polyline class="cls-1" points="915.62 203.08 914.97 171.76 902.99 169.71 902.99 1.26 899.61 1.26 899.61 169.71 887.63 171.76 886.98 203.08"/><path class="cls-1" d="M890.68,197.34s2.47-.38,9.72-1.8V175.18h-7.67a2.09,2.09,0,0,0-1.35,1.81C891.38,178.3,890.68,197.34,890.68,197.34Z" transform="translate(-1 1.5)"/><polygon class="cls-1" points="911.92 333.17 957.23 333.17 943.31 268.35 911.92 268.35 891.13 268.35 859.74 268.35 845.83 333.17 891.13 333.17 911.92 333.17"/><path class="cls-1" d="M859.33,268.09a.8.8,0,0,0,.81.79H945a.8.8,0,0,0,.81-.79V265.6a.79.79,0,0,0-.81-.78H860.14a.79.79,0,0,0-.81.78Z" transform="translate(-1 1.5)"/><polygon class="cls-1" points="524.51 644.04 572.49 809.55 569.17 809.55 511.75 644.04 524.51 644.04"/><path class="cls-1" d="M404.14,645.19c-34.37-151.53-.22-216.52,50.16-220,87.26-6.05,104.56,87.59,112.56,181.08,1.1,12.94.1,26.87,0,38.93Z" transform="translate(-1 1.5)"/><polygon class="cls-1" points="667.69 636.6 718.48 806.58 714.14 806.58 654.42 636.6 667.69 636.6"/><polygon class="cls-1" points="668.2 646.69 663.1 650 713.63 799.88 668.2 646.69"/><polygon class="cls-1" points="565.87 645.29 507.41 809.55 503.58 809.55 553.09 644.04 565.87 645.29"/><polygon class="cls-1" points="562.02 650 556.66 650 506.7 799.11 562.02 650"/><polygon class="cls-1" points="436.2 644.04 378 811.29 373.92 811.29 423.95 644.04 436.2 644.04"/><polygon class="cls-1" points="406.92 720.26 409.8 713.64 683.42 713.64 684.58 717.81 406.92 720.26"/><path class="cls-1" d="M415.17,632.37s115.69-34.28,109.56-114.49S417.44,423.47,409.92,488,415.17,632.37,415.17,632.37Z" transform="translate(-1 1.5)"/><path class="cls-1" d="M565.32,605.57,701.1,612v0l-136.61,7Z" transform="translate(-1 1.5)"/><path class="cls-1" d="M701.1,612c-.09.48-4.11,21.6-6.38,24.55L563,642.54,564.49,619Z" transform="translate(-1 1.5)"/><path class="cls-1" d="M768.51,455.16v-5.3c0-17.47,8.4-31.64,18.76-31.64S806,432.39,806,449.86v5.3" transform="translate(-1 1.5)"/><path class="cls-1" d="M817.81,454c-3,25.91-15.57,45-30.6,45s-27.48-19.25-30.56-45Z" transform="translate(-1 1.5)"/><path class="cls-1" d="M761.23,456s36.7.69,39,10.32-3.84,18.09-6.57,21-9.91,7.67-13.25,6S764.16,481.21,761.23,456Z" transform="translate(-1 1.5)"/><polygon class="cls-1" points="717.74 340.18 716.39 347.27 845.83 346.15 845.83 341.86 717.74 340.18"/><rect class="cls-2" y="1.48" width="1561.19" height="836.02"/><rect class="cls-3" x="509.81" y="1.7" width="0.41" height="837.88"/><rect class="cls-3" x="23.91" y="1.7" width="0.41" height="837.88"/><rect class="cls-3" x="148.14" y="1.7" width="0.41" height="837.88"/><rect class="cls-3" x="328.31" y="1.7" width="0.41" height="837.88"/><rect class="cls-3" x="687.41" y="1.7" width="0.41" height="837.88"/><rect class="cls-3" x="867.99" y="1.7" width="0.41" height="837.88"/><rect class="cls-3" x="1048.98" y="1.7" width="0.41" height="837.88"/><rect class="cls-3" x="1226.68" y="1.7" width="0.41" height="837.88"/><rect class="cls-3" x="1405.61" y="1.7" width="0.41" height="837.88"/><rect class="cls-3" x="1561.11" y="13.62" width="0.41" height="837.88"/><rect class="cls-3" x="1543.83" width="0.41" height="837.88"/><rect class="cls-1" x="3.81" y="764.47" width="1558.19" height="71.17"/><ellipse class="cls-4" cx="546.57" cy="808.85" rx="197.52" ry="8.91"/><ellipse class="cls-4" cx="496.71" cy="784.21" rx="396.31" ry="8.91"/><polygon class="cls-5" points="333.54 783.15 114.67 783.15 117.1 507.71 329.65 507.71 333.54 783.15"/><path class="cls-6" d="M123.68,775.86l4.08-45.26,197.36,5.56,0,.26,2.7,34.54h-.32Zm4.63-44.65-4,44,202.85-4.87-2.64-33.66Z" transform="translate(-1 1.5)"/><rect class="cls-7" x="193.42" y="742.71" width="49.28" height="3.91"/><rect class="cls-7" x="193.42" y="662.64" width="49.28" height="3.91"/><rect class="cls-7" x="193.42" y="582.13" width="49.28" height="3.91"/><rect class="cls-7" x="193.42" y="522.81" width="49.28" height="3.91"/><path class="cls-6" d="M324.5,708.38H125.38V646.51h.3l192.73-2.29,0,.27ZM126,707.79H323.83l-6-63L126,647.1Z" transform="translate(-1 1.5)"/><path class="cls-6" d="M328.85,615.48H123.69l0-.31,3-48.2h197.7l0,.27Zm-204.52-.59H328.19l-4.3-47.33H127.31Z" transform="translate(-1 1.5)"/><path class="cls-6" d="M123.69,548.34l0-.32,1.69-33.2h.29l191.74,2.61v24.05ZM126,515.41l-1.64,32.32,192.49-6.82V518Z" transform="translate(-1 1.5)"/><polygon class="cls-8" points="111.95 500.51 844.15 500.51 844.15 512.43 111.95 507.71 111.95 500.51"/><path class="cls-9" d="M178.91,490.45c23.61,1.37,82.29-8.77,105.08-12.93l-127.66-5.77C156.25,477.22,158.44,489.26,178.91,490.45Z" transform="translate(-1 1.5)"/><path class="cls-10" d="M284,477.52c-22.79,4.16-81.47,14.3-105.08,12.93-20.47-1.19-22.66-13.23-22.58-18.7l-2.06-.09L146.77,499H288.31l-.59-21.33Z" transform="translate(-1 1.5)"/><polygon class="cls-11" points="254.71 497.28 241.52 497.28 242.7 479.29 254.71 479.88 254.71 497.28"/><ellipse class="cls-12" cx="267.99" cy="490.13" rx="4.93" ry="4.79"/><ellipse class="cls-13" cx="382.55" cy="301.26" rx="3.08" ry="2.99"/><ellipse class="cls-14" cx="382.55" cy="301.26" rx="6.82" ry="6.63"/><path class="cls-15" d="M383.31,235.7c-36.38,0-65.88,28.68-65.88,64.06s29.5,64.06,65.88,64.06,65.89-28.68,65.89-64.06S419.7,235.7,383.31,235.7Zm0,121.53c-32.64,0-59.1-25.73-59.1-57.47s26.46-57.47,59.1-57.47,59.11,25.73,59.11,57.47S416,357.23,383.31,357.23Z" transform="translate(-1 1.5)"/><path class="cls-16" d="M390.13,251.19a59.71,59.71,0,0,1,43.8,18.88,59.45,59.45,0,0,0-50.62-27.78c-32.64,0-59.1,25.73-59.1,57.47a56.34,56.34,0,0,0,15.31,38.59,56,56,0,0,1-8.5-29.69C331,276.92,357.49,251.19,390.13,251.19Z" transform="translate(-1 1.5)"/><path class="cls-5" d="M383.31,357.23c32.65,0,59.11-25.73,59.11-57.47a56,56,0,0,0-8.49-29.69,59.71,59.71,0,0,0-43.8-18.88c-32.64,0-59.11,25.73-59.11,57.47a56,56,0,0,0,8.5,29.69A59.69,59.69,0,0,0,383.31,357.23Z" transform="translate(-1 1.5)"/><rect class="cls-17" x="380.19" y="249.24" width="4.73" height="10.97"/><rect class="cls-17" x="380.19" y="340.13" width="4.73" height="10.97"/><rect class="cls-17" x="424.77" y="297.76" width="11.28" height="4.6"/><rect class="cls-17" x="331.29" y="297.76" width="11.28" height="4.6"/><polygon class="cls-14" points="403.18 314.83 397.86 318.52 346 272.72 350.29 272.24 403.18 314.83"/><polygon class="cls-17" points="363.93 316.02 361.42 310.6 415.25 278.04 415.98 280.92 363.93 316.02"/><path class="cls-18" d="M237.45,192.67H94L91.18,332.52h149.9ZM231,325.06H101.28V198.56H231Z" transform="translate(-1 1.5)"/><path class="cls-18" d="M101.28,325.06H231V198.56H101.28ZM124.7,218.22l82.44,1.59c5.26,16.54,5.26,84.43,5.26,84.43H124.31Z" transform="translate(-1 1.5)"/><path class="cls-18" d="M207.14,219.81l-82.44-1.59-.39,86H212.4S212.4,236.35,207.14,219.81Z" transform="translate(-1 1.5)"/><polygon class="cls-18" points="137.86 289.32 198.06 289.32 165.13 245.24 137.86 289.32"/><path class="cls-19" d="M237.45,192.67H94L91.18,332.52h149.9ZM231,325.06H101.28V198.56H231Z" transform="translate(-1 1.5)"/><path class="cls-20" d="M101.28,325.06H231V198.56H101.28ZM124.7,218.22l82.44,1.59c5.26,16.54,5.26,84.43,5.26,84.43H124.31Z" transform="translate(-1 1.5)"/><path class="cls-5" d="M207.14,219.81l-82.44-1.59-.39,86H212.4S212.4,236.35,207.14,219.81Z" transform="translate(-1 1.5)"/><polygon class="cls-21" points="137.86 289.32 198.06 289.32 165.13 245.24 137.86 289.32"/><path class="cls-5" d="M341.43,420.17s-14.27,3.61-14.27,8.74c0,0-1.56,5.88,12.9,6.27s13.49,9.51,5.09,12-8.8,8.36-8.8,8.36,1.76-5.13,9.77-5.51,12-3.53,11.34-10.12c-.78-7.93-15.64-6.79-19-6.79S326,429.67,341.43,420.17Z" transform="translate(-1 1.5)"/><path class="cls-5" d="M324.82,471.38c0,5.52-3.8,10-8.48,10s-8.48-4.47-8.48-10,3.8-10,8.48-10S324.82,465.87,324.82,471.38ZM316.31,466a5.37,5.37,0,1,0,5,5.36A5.18,5.18,0,0,0,316.31,466Z" transform="translate(-1 1.5)"/><polygon class="cls-22" points="752.19 342.11 744.49 252.19 725.59 252.19 728.58 340.32 752.19 342.11"/><polygon class="cls-18" points="745.45 263.37 768.61 258.95 779.05 342.11 752.19 342.11 745.45 263.37"/><polygon class="cls-5" points="770.59 340.18 756.42 340.18 748.96 265.48 765.87 262.34 770.59 340.18"/><polygon class="cls-23" points="777.56 340.96 794.21 340.96 791.27 279.74 777.56 279.74 777.56 340.96"/><polygon class="cls-24" points="777.56 267.42 777.56 279.74 791.27 279.74 790.67 267.42 777.56 267.42"/><polygon class="cls-23" points="789.99 253.15 777.56 253.15 777.56 267.42 790.67 267.42 789.99 253.15"/><path class="cls-5" d="M780.05,280.07h9.45s6,40.54,1.24,49.33-8.63,9.28-8.63,9.28Z" transform="translate(-1 1.5)"/><polygon class="cls-25" points="797.94 244.93 817.34 244.93 828.27 341.63 800.68 341.63 797.94 244.93"/><polygon class="cls-25" points="806.15 258.95 813.11 258.95 822.06 336.07 807.39 336.07 806.15 258.95"/><path class="cls-25" d="M731.81,278.25v57.53S744.49,313.3,744.49,299,736.12,278.76,731.81,278.25Z" transform="translate(-1 1.5)"/><ellipse class="cls-5" cx="735.78" cy="267.42" rx="5.22" ry="5.08"/><polygon class="cls-5" points="692.37 467.51 510.22 467.51 508.86 344.26 694.75 344.26 692.37 467.51"/><polygon class="cls-26" points="614.74 354.26 614.74 460.99 516.35 460.99 514.41 354.5 614.74 354.26"/><polygon class="cls-26" points="688.29 348.77 688.29 457.02 618.83 455.77 618.83 348.77 688.29 348.77"/><polygon class="cls-5" points="646.12 407.12 682.82 407.12 684.94 357.37 646.12 357.37 646.12 407.12"/><polygon class="cls-27" points="649.15 399.54 680.24 399.54 681.61 362.09 649.15 362.09 649.15 399.54"/><polygon class="cls-5" points="623.67 449.83 681.61 449.83 684.94 415.03 625.34 415.03 623.67 415.03 623.67 449.83"/><polygon class="cls-28" points="627.61 444.52 679.94 446.73 680.7 416.8 627.61 416.8 627.61 444.52"/><rect class="cls-5" x="520.38" y="425.35" width="86.3" height="30.38"/><rect class="cls-20" x="531.61" y="427.41" width="71.44" height="25.22"/><polygon class="cls-29" points="584.54 495.15 584.54 470.38 617 470.38 617 495.4 584.54 495.4 584.54 495.15"/><polyline class="cls-30" points="563.69 501.75 563.69 493.11 639.87 495.4 639.87 501.03"/><path class="cls-29" d="M503.73,340.78V467.83a3.59,3.59,0,0,0,3.64,3.54h188a3.59,3.59,0,0,0,3.64-3.54l1.21-129.41a3.59,3.59,0,0,0-3.64-3.54l-189.17,2.36A3.59,3.59,0,0,0,503.73,340.78Zm6.12,2h185.9L693.37,466H511.22Z" transform="translate(-1 1.5)"/><polygon class="cls-5" points="610.2 358.86 610.2 367.89 576.04 366.18 576.04 358.86 610.2 358.86"/><polygon class="cls-5" points="610.2 371.8 610.2 380.81 576.04 382.24 576.04 371.8 610.2 371.8"/><polygon class="cls-5" points="597.13 392.2 597.13 385.83 576.04 383.77 576.04 392.2 597.13 392.2"/><polygon class="cls-5" points="572.02 358.86 517.76 358.86 517.76 410.63 570.26 409.65 572.02 358.86"/><polygon class="cls-31" points="557.2 399.54 520.38 399.54 520.38 362.09 559.96 362.09 557.2 399.54"/><polygon class="cls-5" points="517.76 420.63 517.76 415.03 572.02 413.56 572.02 419.66 517.76 420.63"/><polygon class="cls-32" points="514.3 348.77 614.74 348.77 614.74 354.26 514.41 354.5 514.3 348.77"/><rect class="cls-5" x="530.2" y="350.06" width="3.09" height="3"/><rect class="cls-5" x="523.25" y="350.06" width="3.09" height="3"/><rect class="cls-5" x="516.3" y="350.06" width="3.09" height="3"/><rect class="cls-5" x="598.94" y="350.38" width="2.86" height="2.78"/><polygon class="cls-33" points="755.65 510.64 761.13 532.14 767.27 532.14 700.34 782.87 709.33 782.87 778.97 533.53 780.97 533.53 856.18 784.81 867.88 783.84 790.96 532.7 800.09 532.7 802.8 510.64 755.65 510.64"/><polygon class="cls-34" points="761.42 521.18 762.85 530.34 798.1 530.34 798.95 519.38 761.42 521.18"/><polygon class="cls-5" points="342.57 461.66 321.21 461.66 320.34 498.72 339.11 497.91 342.57 461.66"/><polygon class="cls-6" points="353.89 497.28 348.63 461.66 342.57 461.66 339.11 497.91 353.89 497.28"/><polygon class="cls-5" points="342.85 458.76 321.28 458.76 321.21 461.66 342.57 461.66 342.85 458.76"/><polygon class="cls-5" points="320.34 498.72 320.3 500.51 338.86 500.51 339.11 497.91 320.34 498.72"/><polygon class="cls-6" points="351.96 458.76 342.85 458.76 342.57 461.66 348.63 461.66 353.89 497.28 339.11 497.91 338.86 500.51 356.53 500.51 351.96 458.76"/><polygon class="cls-35" points="164.29 473.41 282.99 479.02 282.38 473.14 164.5 470.63 164.29 473.41"/><polygon class="cls-36" points="280.79 457.84 165.24 460.71 164.5 470.63 282.38 473.14 280.81 457.84 280.79 457.84"/><path class="cls-37" d="M546.14,264.82V237.9c0-22-18.36-39.88-41-39.88h0c-22.65,0-41,17.85-41,39.88v26.92Z" transform="translate(-1 1.5)"/><path class="cls-38" d="M522.88,212.18s-12-15.57-32.71-3c-17.21,10.45-25.56,30.31-22.75,52.18,0,0,87.69-1.64,55.46-49.2Z" transform="translate(-1 1.5)"/><polyline class="cls-37" points="517.8 203.08 517.15 171.76 505.18 169.71 505.18 1.26 501.79 1.26 501.79 169.71 489.82 171.76 489.17 203.08"/><path class="cls-38" d="M492.86,197.34s2.47-.38,9.73-1.8V175.18h-7.68a2.09,2.09,0,0,0-1.34,1.81C493.57,178.3,492.86,197.34,492.86,197.34Z" transform="translate(-1 1.5)"/><polygon class="cls-39" points="514.11 333.17 559.41 333.17 545.49 268.35 514.11 268.35 493.31 268.35 461.93 268.35 448.01 333.17 493.31 333.17 514.11 333.17"/><path class="cls-40" d="M461.51,268.09a.8.8,0,0,0,.81.79h84.82a.79.79,0,0,0,.8-.79V265.6a.79.79,0,0,0-.8-.78H462.32a.79.79,0,0,0-.81.78Z" transform="translate(-1 1.5)"/><path class="cls-37" d="M944,264.82V237.9c0-22-18.37-39.88-41-39.88h0c-22.66,0-41,17.85-41,39.88v26.92Z" transform="translate(-1 1.5)"/><path class="cls-38" d="M920.7,212.18s-12-15.57-32.71-3c-17.22,10.45-25.56,30.31-22.75,52.18,0,0,87.68-1.64,55.46-49.2Z" transform="translate(-1 1.5)"/><polyline class="cls-37" points="915.62 203.08 914.97 171.76 902.99 169.71 902.99 1.26 899.61 1.26 899.61 169.71 887.63 171.76 886.98 203.08"/><path class="cls-38" d="M890.68,197.34s2.47-.38,9.72-1.8V175.18h-7.67a2.09,2.09,0,0,0-1.35,1.81C891.38,178.3,890.68,197.34,890.68,197.34Z" transform="translate(-1 1.5)"/><polygon class="cls-41" points="911.92 333.17 957.23 333.17 943.31 268.35 911.92 268.35 891.13 268.35 859.74 268.35 845.83 333.17 891.13 333.17 911.92 333.17"/><path class="cls-40" d="M859.33,268.09a.8.8,0,0,0,.81.79H945a.8.8,0,0,0,.81-.79V265.6a.79.79,0,0,0-.81-.78H860.14a.79.79,0,0,0-.81.78Z" transform="translate(-1 1.5)"/><polygon class="cls-33" points="524.51 644.04 572.49 809.55 569.17 809.55 511.75 644.04 524.51 644.04"/><path class="cls-42" d="M404.14,645.19c-34.37-151.53-.22-216.52,50.16-220,87.26-6.05,104.56,87.59,112.56,181.08,1.1,12.94.1,26.87,0,38.93Z" transform="translate(-1 1.5)"/><polygon class="cls-33" points="667.69 636.6 718.48 806.58 714.14 806.58 654.42 636.6 667.69 636.6"/><polygon class="cls-34" points="668.2 646.69 663.1 650 713.63 799.88 668.2 646.69"/><polygon class="cls-33" points="565.87 645.29 507.41 809.55 503.58 809.55 553.09 644.04 565.87 645.29"/><polygon class="cls-34" points="562.02 650 556.66 650 506.7 799.11 562.02 650"/><polygon class="cls-33" points="436.2 644.04 378 811.29 373.92 811.29 423.95 644.04 436.2 644.04"/><polygon class="cls-33" points="406.92 720.26 409.8 713.64 683.42 713.64 684.58 717.81 406.92 720.26"/><path class="cls-43" d="M415.17,632.37s115.69-34.28,109.56-114.49S417.44,423.47,409.92,488,415.17,632.37,415.17,632.37Z" transform="translate(-1 1.5)"/><path class="cls-5" d="M565.32,605.57,701.1,612v0l-136.61,7Z" transform="translate(-1 1.5)"/><path class="cls-44" d="M701.1,612c-.09.48-4.11,21.6-6.38,24.55L563,642.54,564.49,619Z" transform="translate(-1 1.5)"/><path class="cls-45" d="M768.51,455.16v-5.3c0-17.47,8.4-31.64,18.76-31.64S806,432.39,806,449.86v5.3" transform="translate(-1 1.5)"/><path class="cls-46" d="M817.81,454c-3,25.91-15.57,45-30.6,45s-27.48-19.25-30.56-45Z" transform="translate(-1 1.5)"/><path class="cls-47" d="M761.23,456s36.7.69,39,10.32-3.84,18.09-6.57,21-9.91,7.67-13.25,6S764.16,481.21,761.23,456Z" transform="translate(-1 1.5)"/><polygon class="cls-24" points="717.74 340.18 716.39 347.27 845.83 346.15 845.83 341.86 717.74 340.18"/></svg>