<svg id="Camada_1" data-name="Camada 1" xmlns="http://www.w3.org/2000/svg" xmlns:xlink="http://www.w3.org/1999/xlink" viewBox="0 0 854.58 816.5"><defs><style>.cls-1{fill:#e2c191;}.cls-2{fill:#997c67;}.cls-3{fill:#fff;}.cls-4{fill:#e4e4e4;stroke:#e4e4e4;stroke-width:0.6px;}.cls-11,.cls-4{stroke-miterlimit:10;}.cls-5{fill:#110b2e;}.cls-6{fill:#924b25;}.cls-7{fill:#ff8432;}.cls-8{fill:#ff6a00;}.cls-9{fill:#fdfcfa;}.cls-10{fill:#074e40;}.cls-11{fill:none;stroke:#f0f;stroke-width:0.5px;}.cls-12{fill:#403a61;}.cls-13{fill:#362c56;}.cls-14{fill:#e7e7e7;}.cls-15{fill:#fe6c09;}.cls-16{fill:#059aaa;}.cls-17{fill:#332c57;}.cls-18{fill:#d3d3d3;}.cls-19{fill:#f7c288;}.cls-20{fill:#f2993b;}.cls-21{fill:#fe6800;}.cls-22{fill:#8f4c27;}.cls-23{fill:#3c375e;}.cls-24{fill:#b3e6b8;}.cls-25{fill:#b3dbdd;}.cls-26{fill:#f6c289;}.cls-27{fill:#282342;}.cls-28{fill:#3d385f;}.cls-29{fill:#f19939;}.cls-30{fill:#8c889f;}.cls-31{fill:#5c2e1a;}.cls-32{fill:#7c5b4a;}.cls-33{fill:#02493f;}.cls-34{fill:#00786b;}.cls-35{fill:#8e44ad;}.cls-36{fill:#ab6ace;}.cls-37{fill:#fffeff;}.cls-38{fill:url(#linear-gradient);}.cls-39{opacity:0.5;fill:url(#linear-gradient-2);}.cls-40{fill:#efefef;}.cls-41{fill:#01796d;}.cls-42{fill:#f29a39;}.cls-43{fill:#f5ae60;}</style><linearGradient id="linear-gradient" x1="11128.86" y1="659.35" x2="11128.86" y2="518.96" gradientTransform="matrix(-1, 0, 0, 1, 11607.66, 0)" gradientUnits="userSpaceOnUse"><stop offset="0" stop-color="#c7c7c7"/><stop offset="1" stop-color="#fff"/></linearGradient><linearGradient id="linear-gradient-2" x1="11141.41" y1="632.37" x2="11141.41" y2="447.41" xlink:href="#linear-gradient"/></defs><title>desktop</title><ellipse class="cls-1" cx="456.39" cy="807.59" rx="197.52" ry="8.91"/><ellipse class="cls-1" cx="406.52" cy="782.95" rx="396.31" ry="8.91"/><polygon class="cls-1" points="243.36 781.89 24.49 781.89 26.92 506.45 239.47 506.45 243.36 781.89"/><path class="cls-1" d="M123.68,775.86l4.08-45.26,197.36,5.56,0,.26,2.7,34.54h-.32Zm4.63-44.65-4,44,202.85-4.87-2.64-33.66Z" transform="translate(-91.18 0.24)"/><rect class="cls-1" x="103.24" y="741.45" width="49.28" height="3.91"/><rect class="cls-1" x="103.24" y="661.39" width="49.28" height="3.91"/><rect class="cls-1" x="103.24" y="580.87" width="49.28" height="3.91"/><rect class="cls-1" x="103.24" y="521.55" width="49.28" height="3.91"/><path class="cls-1" d="M324.5,708.38H125.38V646.51h.3l192.73-2.29,0,.27ZM126,707.79H323.83l-6-63L126,647.1Z" transform="translate(-91.18 0.24)"/><path class="cls-1" d="M328.85,615.48H123.69l0-.31,3-48.2h197.7l0,.27Zm-204.52-.59H328.19l-4.3-47.33H127.31Z" transform="translate(-91.18 0.24)"/><path class="cls-1" d="M123.69,548.34l0-.32,1.69-33.2h.29l191.74,2.61v24.05ZM126,515.41l-1.64,32.32,192.49-6.82V518Z" transform="translate(-91.18 0.24)"/><polygon class="cls-1" points="21.77 499.26 753.97 499.26 753.97 511.17 21.77 506.45 21.77 499.26"/><path class="cls-1" d="M178.91,490.45c23.61,1.37,82.29-8.77,105.08-12.93l-127.66-5.77C156.25,477.22,158.44,489.26,178.91,490.45Z" transform="translate(-91.18 0.24)"/><path class="cls-1" d="M284,477.52c-22.79,4.16-81.47,14.3-105.08,12.93-20.47-1.19-22.66-13.23-22.58-18.7l-2.06-.09L146.77,499H288.31l-.59-21.33Z" transform="translate(-91.18 0.24)"/><polygon class="cls-1" points="164.53 496.02 151.34 496.02 152.52 478.03 164.53 478.62 164.53 496.02"/><ellipse class="cls-1" cx="177.81" cy="488.87" rx="4.93" ry="4.79"/><polygon class="cls-1" points="199.26 453.27 70.18 457.5 68.61 446.46 198.76 440.13 199.26 453.27"/><polygon class="cls-1" points="174 444 70.76 447.74 72.47 453.26 174 444"/><ellipse class="cls-1" cx="292.37" cy="300" rx="3.08" ry="2.99"/><ellipse class="cls-1" cx="292.37" cy="300" rx="6.82" ry="6.63"/><path class="cls-1" d="M383.31,235.7c-36.38,0-65.88,28.68-65.88,64.06s29.5,64.06,65.88,64.06,65.89-28.68,65.89-64.06S419.7,235.7,383.31,235.7Zm0,121.53c-32.64,0-59.1-25.73-59.1-57.47s26.46-57.47,59.1-57.47,59.11,25.73,59.11,57.47S416,357.23,383.31,357.23Z" transform="translate(-91.18 0.24)"/><path class="cls-1" d="M390.13,251.19a59.71,59.71,0,0,1,43.8,18.88,59.45,59.45,0,0,0-50.62-27.78c-32.64,0-59.1,25.73-59.1,57.47a56.34,56.34,0,0,0,15.31,38.59,56,56,0,0,1-8.5-29.69C331,276.92,357.49,251.19,390.13,251.19Z" transform="translate(-91.18 0.24)"/><path class="cls-1" d="M383.31,357.23c32.65,0,59.11-25.73,59.11-57.47a56,56,0,0,0-8.49-29.69,59.71,59.71,0,0,0-43.8-18.88c-32.64,0-59.11,25.73-59.11,57.47a56,56,0,0,0,8.5,29.69A59.69,59.69,0,0,0,383.31,357.23Z" transform="translate(-91.18 0.24)"/><rect class="cls-1" x="290.01" y="247.98" width="4.73" height="10.97"/><rect class="cls-1" x="290.01" y="338.87" width="4.73" height="10.97"/><rect class="cls-1" x="334.59" y="296.5" width="11.28" height="4.6"/><rect class="cls-1" x="241.11" y="296.5" width="11.28" height="4.6"/><polygon class="cls-1" points="313 313.57 307.68 317.27 255.82 271.46 260.11 270.98 313 313.57"/><polygon class="cls-1" points="273.75 314.76 271.24 309.34 325.07 276.78 325.8 279.66 273.75 314.76"/><path class="cls-1" d="M237.45,192.67H94L91.18,332.52h149.9ZM231,325.06H101.28V198.56H231Z" transform="translate(-91.18 0.24)"/><path class="cls-1" d="M101.28,325.06H231V198.56H101.28ZM124.7,218.22l82.44,1.59c5.26,16.54,5.26,84.43,5.26,84.43H124.31Z" transform="translate(-91.18 0.24)"/><path class="cls-1" d="M207.14,219.81l-82.44-1.59-.39,86H212.4S212.4,236.35,207.14,219.81Z" transform="translate(-91.18 0.24)"/><polygon class="cls-1" points="47.68 288.06 107.88 288.06 74.95 243.98 47.68 288.06"/><path class="cls-1" d="M237.45,192.67H94L91.18,332.52h149.9ZM231,325.06H101.28V198.56H231Z" transform="translate(-91.18 0.24)"/><path class="cls-1" d="M101.28,325.06H231V198.56H101.28ZM124.7,218.22l82.44,1.59c5.26,16.54,5.26,84.43,5.26,84.43H124.31Z" transform="translate(-91.18 0.24)"/><path class="cls-1" d="M207.14,219.81l-82.44-1.59-.39,86H212.4S212.4,236.35,207.14,219.81Z" transform="translate(-91.18 0.24)"/><polygon class="cls-1" points="47.68 288.06 107.88 288.06 74.95 243.98 47.68 288.06"/><path class="cls-1" d="M237.45,192.67H94L91.18,332.52h149.9ZM231,325.06H101.28V198.56H231Z" transform="translate(-91.18 0.24)"/><path class="cls-1" d="M101.28,325.06H231V198.56H101.28ZM124.7,218.22l82.44,1.59c5.26,16.54,5.26,84.43,5.26,84.43H124.31Z" transform="translate(-91.18 0.24)"/><path class="cls-1" d="M207.14,219.81l-82.44-1.59-.39,86H212.4S212.4,236.35,207.14,219.81Z" transform="translate(-91.18 0.24)"/><polygon class="cls-1" points="47.68 288.06 107.88 288.06 74.95 243.98 47.68 288.06"/><path class="cls-1" d="M341.43,420.17s-14.27,3.61-14.27,8.74c0,0-1.56,5.88,12.9,6.27s13.49,9.51,5.09,12-8.8,8.36-8.8,8.36,1.76-5.13,9.77-5.51,12-3.53,11.34-10.12c-.78-7.93-15.64-6.79-19-6.79S326,429.67,341.43,420.17Z" transform="translate(-91.18 0.24)"/><path class="cls-1" d="M324.82,471.38c0,5.52-3.8,10-8.48,10s-8.48-4.47-8.48-10,3.8-10,8.48-10S324.82,465.87,324.82,471.38ZM316.31,466a5.37,5.37,0,1,0,5,5.36A5.18,5.18,0,0,0,316.31,466Z" transform="translate(-91.18 0.24)"/><polygon class="cls-1" points="662.01 340.86 654.31 250.93 635.41 250.93 638.4 339.07 662.01 340.86"/><polygon class="cls-1" points="655.26 262.11 678.42 257.7 688.87 340.86 662.01 340.86 655.26 262.11"/><polygon class="cls-1" points="680.41 338.92 666.24 338.92 658.78 264.22 675.69 261.08 680.41 338.92"/><polygon class="cls-1" points="687.38 339.71 704.03 339.71 701.09 278.49 687.38 278.49 687.38 339.71"/><polygon class="cls-1" points="687.38 266.16 687.38 278.49 701.09 278.49 700.49 266.16 687.38 266.16"/><polygon class="cls-1" points="699.81 251.9 687.38 251.9 687.38 266.16 700.49 266.16 699.81 251.9"/><path class="cls-1" d="M780.05,280.07h9.45s6,40.54,1.24,49.33-8.63,9.28-8.63,9.28Z" transform="translate(-91.18 0.24)"/><polygon class="cls-1" points="707.76 243.68 727.16 243.68 738.09 340.37 710.5 340.37 707.76 243.68"/><polygon class="cls-1" points="715.97 257.7 722.93 257.7 731.88 334.81 717.21 334.81 715.97 257.7"/><path class="cls-1" d="M731.81,278.25v57.53S744.49,313.3,744.49,299,736.12,278.76,731.81,278.25Z" transform="translate(-91.18 0.24)"/><ellipse class="cls-1" cx="645.6" cy="266.16" rx="5.22" ry="5.08"/><polygon class="cls-1" points="602.19 466.25 420.04 466.25 418.67 343.01 604.57 343.01 602.19 466.25"/><polygon class="cls-1" points="524.56 353.01 524.56 459.73 426.16 459.73 424.23 353.24 524.56 353.01"/><polygon class="cls-1" points="598.11 347.51 598.11 455.76 528.65 454.51 528.65 347.51 598.11 347.51"/><polygon class="cls-1" points="555.93 405.86 592.64 405.86 594.76 356.11 555.93 356.11 555.93 405.86"/><polygon class="cls-1" points="558.97 398.29 590.06 398.29 591.43 360.83 558.97 360.83 558.97 398.29"/><polygon class="cls-1" points="533.49 448.57 591.43 448.57 594.76 413.77 535.16 413.77 533.49 413.77 533.49 448.57"/><polygon class="cls-1" points="537.43 443.26 589.76 445.47 590.52 415.54 537.43 415.54 537.43 443.26"/><rect class="cls-1" x="430.2" y="424.09" width="86.3" height="30.38"/><rect class="cls-1" x="441.42" y="426.16" width="71.44" height="25.22"/><polygon class="cls-1" points="494.36 493.89 494.36 469.12 526.81 469.12 526.81 494.15 494.36 494.15 494.36 493.89"/><polyline class="cls-1" points="473.51 500.49 473.51 491.85 549.68 494.15 549.68 499.78"/><path class="cls-1" d="M503.73,340.78V467.83a3.59,3.59,0,0,0,3.64,3.54h188a3.59,3.59,0,0,0,3.64-3.54l1.21-129.41a3.59,3.59,0,0,0-3.64-3.54l-189.17,2.36A3.59,3.59,0,0,0,503.73,340.78Zm6.12,2h185.9L693.37,466H511.22Z" transform="translate(-91.18 0.24)"/><polygon class="cls-1" points="520.01 357.6 520.01 366.63 485.86 364.93 485.86 357.6 520.01 357.6"/><polygon class="cls-1" points="520.01 370.54 520.01 379.56 485.86 380.98 485.86 370.54 520.01 370.54"/><polygon class="cls-1" points="506.95 390.94 506.95 384.57 485.86 382.51 485.86 390.94 506.95 390.94"/><polygon class="cls-1" points="481.84 357.6 427.58 357.6 427.58 409.37 480.08 408.39 481.84 357.6"/><polygon class="cls-1" points="467.02 398.29 430.2 398.29 430.2 360.83 469.78 360.83 467.02 398.29"/><polygon class="cls-1" points="427.58 419.37 427.58 413.77 481.84 412.3 481.84 418.41 427.58 419.37"/><polygon class="cls-1" points="424.12 347.51 524.56 347.51 524.56 353.01 424.23 353.24 424.12 347.51"/><rect class="cls-1" x="440.02" y="348.8" width="3.09" height="3"/><rect class="cls-1" x="433.07" y="348.8" width="3.09" height="3"/><rect class="cls-1" x="426.12" y="348.8" width="3.09" height="3"/><rect class="cls-1" x="508.76" y="349.12" width="2.86" height="2.78"/><polygon class="cls-1" points="665.47 509.38 670.95 530.89 677.09 530.89 610.16 781.61 619.15 781.61 688.79 532.27 690.79 532.27 766 783.55 777.7 782.58 700.78 531.44 709.91 531.44 712.62 509.38 665.47 509.38"/><polygon class="cls-1" points="671.24 519.93 672.66 529.08 707.91 529.08 708.77 518.12 671.24 519.93"/><polygon class="cls-1" points="632.32 727.5 749.93 721.97 754.86 736.72 630.24 735.06 632.32 727.5"/><polygon class="cls-1" points="252.39 460.4 231.03 460.4 230.16 497.46 248.92 496.65 252.39 460.4"/><polygon class="cls-1" points="263.7 496.02 258.44 460.4 252.39 460.4 248.92 496.65 263.7 496.02"/><polygon class="cls-1" points="252.67 457.5 231.09 457.5 231.03 460.4 252.39 460.4 252.67 457.5"/><polygon class="cls-1" points="230.16 497.46 230.12 499.26 248.68 499.26 248.92 496.65 230.16 497.46"/><polygon class="cls-1" points="261.78 457.5 252.67 457.5 252.39 460.4 258.44 460.4 263.7 496.02 248.92 496.65 248.68 499.26 266.35 499.26 261.78 457.5"/><polygon class="cls-1" points="77.74 456.58 75.16 459.35 190.61 456.58 205.48 456.21 204.11 435.42 65.81 444.27 68.84 459.45 70.76 459.45 75.16 459.35 77.74 456.58"/><polygon class="cls-1" points="74.11 472.15 192.81 477.76 192.2 471.88 74.32 469.37 74.11 472.15"/><polygon class="cls-1" points="70.76 459.45 75.06 459.45 75.16 459.35 70.76 459.45"/><polygon class="cls-1" points="75.16 459.35 75.06 459.45 190.61 456.58 75.16 459.35"/><polygon class="cls-1" points="190.61 456.58 75.06 459.45 74.32 469.37 192.2 471.88 190.63 456.58 190.61 456.58"/><path class="cls-1" d="M546.14,264.82V237.9c0-22-18.36-39.88-41-39.88h0c-22.65,0-41,17.85-41,39.88v26.92Z" transform="translate(-91.18 0.24)"/><path class="cls-1" d="M522.88,212.18s-12-15.57-32.71-3c-17.21,10.45-25.56,30.31-22.75,52.18,0,0,87.69-1.64,55.46-49.2Z" transform="translate(-91.18 0.24)"/><polyline class="cls-1" points="427.62 201.82 426.97 170.5 415 168.45 415 0 411.61 0 411.61 168.45 399.63 170.5 398.98 201.82"/><path class="cls-1" d="M492.86,197.34s2.47-.38,9.73-1.8V175.18h-7.68a2.09,2.09,0,0,0-1.34,1.81C493.57,178.3,492.86,197.34,492.86,197.34Z" transform="translate(-91.18 0.24)"/><path class="cls-1" d="M461.51,268.09a.8.8,0,0,0,.81.79h84.82a.79.79,0,0,0,.8-.79V265.6a.79.79,0,0,0-.8-.78H462.32a.79.79,0,0,0-.81.78Z" transform="translate(-91.18 0.24)"/><path class="cls-1" d="M944,264.82V237.9c0-22-18.37-39.88-41-39.88h0c-22.66,0-41,17.85-41,39.88v26.92Z" transform="translate(-91.18 0.24)"/><path class="cls-1" d="M920.7,212.18s-12-15.57-32.71-3c-17.22,10.45-25.56,30.31-22.75,52.18,0,0,87.68-1.64,55.46-49.2Z" transform="translate(-91.18 0.24)"/><polyline class="cls-1" points="825.44 201.82 824.79 170.5 812.81 168.45 812.81 0 809.43 0 809.43 168.45 797.45 170.5 796.8 201.82"/><path class="cls-1" d="M890.68,197.34s2.47-.38,9.72-1.8V175.18h-7.67a2.09,2.09,0,0,0-1.35,1.81C891.38,178.3,890.68,197.34,890.68,197.34Z" transform="translate(-91.18 0.24)"/><path class="cls-1" d="M859.33,268.09a.8.8,0,0,0,.81.79H945a.8.8,0,0,0,.81-.79V265.6a.79.79,0,0,0-.81-.78H860.14a.79.79,0,0,0-.81.78Z" transform="translate(-91.18 0.24)"/><polygon class="cls-1" points="434.32 642.78 482.31 808.3 478.99 808.3 421.56 642.78 434.32 642.78"/><path class="cls-1" d="M404.14,645.19c-34.37-151.53-.22-216.52,50.16-220,87.26-6.05,104.56,87.59,112.56,181.08,1.1,12.94.1,26.87,0,38.93Z" transform="translate(-91.18 0.24)"/><polygon class="cls-1" points="577.51 635.34 628.3 805.32 623.96 805.32 564.24 635.34 577.51 635.34"/><polygon class="cls-1" points="578.02 645.43 572.91 648.74 623.45 798.62 578.02 645.43"/><polygon class="cls-1" points="475.69 644.03 417.23 808.3 413.4 808.3 462.91 642.78 475.69 644.03"/><polygon class="cls-1" points="471.84 648.74 466.48 648.74 416.52 797.85 471.84 648.74"/><polygon class="cls-1" points="346.02 642.78 287.82 810.03 283.74 810.03 333.76 642.78 346.02 642.78"/><polygon class="cls-1" points="316.74 719 319.62 712.39 593.24 712.39 594.39 716.55 316.74 719"/><path class="cls-1" d="M415.17,632.37s115.69-34.28,109.56-114.49S417.44,423.47,409.92,488,415.17,632.37,415.17,632.37Z" transform="translate(-91.18 0.24)"/><path class="cls-1" d="M565.32,605.57,701.1,612v0l-136.61,7Z" transform="translate(-91.18 0.24)"/><path class="cls-1" d="M701.1,612c-.09.48-4.11,21.6-6.38,24.55L563,642.54,564.49,619Z" transform="translate(-91.18 0.24)"/><path class="cls-1" d="M768.51,455.16v-5.3c0-17.47,8.4-31.64,18.76-31.64S806,432.39,806,449.86v5.3" transform="translate(-91.18 0.24)"/><path class="cls-1" d="M817.81,454c-3,25.91-15.57,45-30.6,45s-27.48-19.25-30.56-45Z" transform="translate(-91.18 0.24)"/><path class="cls-1" d="M761.23,456s36.7.69,39,10.32-3.84,18.09-6.57,21-9.91,7.67-13.25,6S764.16,481.21,761.23,456Z" transform="translate(-91.18 0.24)"/><polygon class="cls-1" points="627.56 338.92 626.21 346.01 755.64 344.89 755.64 340.6 627.56 338.92"/><ellipse class="cls-2" cx="456.39" cy="807.59" rx="197.52" ry="8.91"/><ellipse class="cls-2" cx="406.52" cy="782.95" rx="396.31" ry="8.91"/><polygon class="cls-3" points="243.36 781.89 24.49 781.89 26.92 506.45 239.47 506.45 243.36 781.89"/><path class="cls-4" d="M123.68,775.86l4.08-45.26,197.36,5.56,0,.26,2.7,34.54h-.32Zm4.63-44.65-4,44,202.85-4.87-2.64-33.66Z" transform="translate(-91.18 0.24)"/><rect class="cls-5" x="103.24" y="741.45" width="49.28" height="3.91"/><rect class="cls-5" x="103.24" y="661.39" width="49.28" height="3.91"/><rect class="cls-5" x="103.24" y="580.87" width="49.28" height="3.91"/><rect class="cls-5" x="103.24" y="521.55" width="49.28" height="3.91"/><path class="cls-4" d="M324.5,708.38H125.38V646.51h.3l192.73-2.29,0,.27ZM126,707.79H323.83l-6-63L126,647.1Z" transform="translate(-91.18 0.24)"/><path class="cls-4" d="M328.85,615.48H123.69l0-.31,3-48.2h197.7l0,.27Zm-204.52-.59H328.19l-4.3-47.33H127.31Z" transform="translate(-91.18 0.24)"/><path class="cls-4" d="M123.69,548.34l0-.32,1.69-33.2h.29l191.74,2.61v24.05ZM126,515.41l-1.64,32.32,192.49-6.82V518Z" transform="translate(-91.18 0.24)"/><polygon class="cls-6" points="21.77 499.26 753.97 499.26 753.97 511.17 21.77 506.45 21.77 499.26"/><path class="cls-7" d="M178.91,490.45c23.61,1.37,82.29-8.77,105.08-12.93l-127.66-5.77C156.25,477.22,158.44,489.26,178.91,490.45Z" transform="translate(-91.18 0.24)"/><path class="cls-8" d="M284,477.52c-22.79,4.16-81.47,14.3-105.08,12.93-20.47-1.19-22.66-13.23-22.58-18.7l-2.06-.09L146.77,499H288.31l-.59-21.33Z" transform="translate(-91.18 0.24)"/><polygon class="cls-9" points="164.53 496.02 151.34 496.02 152.52 478.03 164.53 478.62 164.53 496.02"/><ellipse class="cls-10" cx="177.81" cy="488.87" rx="4.93" ry="4.79"/><ellipse class="cls-11" cx="292.37" cy="300" rx="3.08" ry="2.99"/><ellipse class="cls-12" cx="292.37" cy="300" rx="6.82" ry="6.63"/><path class="cls-13" d="M383.31,235.7c-36.38,0-65.88,28.68-65.88,64.06s29.5,64.06,65.88,64.06,65.89-28.68,65.89-64.06S419.7,235.7,383.31,235.7Zm0,121.53c-32.64,0-59.1-25.73-59.1-57.47s26.46-57.47,59.1-57.47,59.11,25.73,59.11,57.47S416,357.23,383.31,357.23Z" transform="translate(-91.18 0.24)"/><path class="cls-14" d="M390.13,251.19a59.71,59.71,0,0,1,43.8,18.88,59.45,59.45,0,0,0-50.62-27.78c-32.64,0-59.1,25.73-59.1,57.47a56.34,56.34,0,0,0,15.31,38.59,56,56,0,0,1-8.5-29.69C331,276.92,357.49,251.19,390.13,251.19Z" transform="translate(-91.18 0.24)"/><path class="cls-3" d="M383.31,357.23c32.65,0,59.11-25.73,59.11-57.47a56,56,0,0,0-8.49-29.69,59.71,59.71,0,0,0-43.8-18.88c-32.64,0-59.11,25.73-59.11,57.47a56,56,0,0,0,8.5,29.69A59.69,59.69,0,0,0,383.31,357.23Z" transform="translate(-91.18 0.24)"/><rect class="cls-15" x="290.01" y="247.98" width="4.73" height="10.97"/><rect class="cls-15" x="290.01" y="338.87" width="4.73" height="10.97"/><rect class="cls-15" x="334.59" y="296.5" width="11.28" height="4.6"/><rect class="cls-15" x="241.11" y="296.5" width="11.28" height="4.6"/><polygon class="cls-12" points="313 313.57 307.68 317.27 255.82 271.46 260.11 270.98 313 313.57"/><polygon class="cls-15" points="273.75 314.76 271.24 309.34 325.07 276.78 325.8 279.66 273.75 314.76"/><path class="cls-16" d="M237.45,192.67H94L91.18,332.52h149.9ZM231,325.06H101.28V198.56H231Z" transform="translate(-91.18 0.24)"/><path class="cls-16" d="M101.28,325.06H231V198.56H101.28ZM124.7,218.22l82.44,1.59c5.26,16.54,5.26,84.43,5.26,84.43H124.31Z" transform="translate(-91.18 0.24)"/><path class="cls-16" d="M207.14,219.81l-82.44-1.59-.39,86H212.4S212.4,236.35,207.14,219.81Z" transform="translate(-91.18 0.24)"/><polygon class="cls-16" points="47.68 288.06 107.88 288.06 74.95 243.98 47.68 288.06"/><path class="cls-17" d="M237.45,192.67H94L91.18,332.52h149.9ZM231,325.06H101.28V198.56H231Z" transform="translate(-91.18 0.24)"/><path class="cls-18" d="M101.28,325.06H231V198.56H101.28ZM124.7,218.22l82.44,1.59c5.26,16.54,5.26,84.43,5.26,84.43H124.31Z" transform="translate(-91.18 0.24)"/><path class="cls-3" d="M207.14,219.81l-82.44-1.59-.39,86H212.4S212.4,236.35,207.14,219.81Z" transform="translate(-91.18 0.24)"/><polygon class="cls-19" points="47.68 288.06 107.88 288.06 74.95 243.98 47.68 288.06"/><path class="cls-3" d="M341.43,420.17s-14.27,3.61-14.27,8.74c0,0-1.56,5.88,12.9,6.27s13.49,9.51,5.09,12-8.8,8.36-8.8,8.36,1.76-5.13,9.77-5.51,12-3.53,11.34-10.12c-.78-7.93-15.64-6.79-19-6.79S326,429.67,341.43,420.17Z" transform="translate(-91.18 0.24)"/><path class="cls-3" d="M324.82,471.38c0,5.52-3.8,10-8.48,10s-8.48-4.47-8.48-10,3.8-10,8.48-10S324.82,465.87,324.82,471.38ZM316.31,466a5.37,5.37,0,1,0,5,5.36A5.18,5.18,0,0,0,316.31,466Z" transform="translate(-91.18 0.24)"/><polygon class="cls-20" points="662.01 340.86 654.31 250.93 635.41 250.93 638.4 339.07 662.01 340.86"/><polygon class="cls-16" points="655.26 262.11 678.42 257.7 688.87 340.86 662.01 340.86 655.26 262.11"/><polygon class="cls-3" points="680.41 338.92 666.24 338.92 658.78 264.22 675.69 261.08 680.41 338.92"/><polygon class="cls-21" points="687.38 339.71 704.03 339.71 701.09 278.49 687.38 278.49 687.38 339.71"/><polygon class="cls-22" points="687.38 266.16 687.38 278.49 701.09 278.49 700.49 266.16 687.38 266.16"/><polygon class="cls-21" points="699.81 251.9 687.38 251.9 687.38 266.16 700.49 266.16 699.81 251.9"/><path class="cls-3" d="M780.05,280.07h9.45s6,40.54,1.24,49.33-8.63,9.28-8.63,9.28Z" transform="translate(-91.18 0.24)"/><polygon class="cls-23" points="707.76 243.68 727.16 243.68 738.09 340.37 710.5 340.37 707.76 243.68"/><polygon class="cls-23" points="715.97 257.7 722.93 257.7 731.88 334.81 717.21 334.81 715.97 257.7"/><path class="cls-23" d="M731.81,278.25v57.53S744.49,313.3,744.49,299,736.12,278.76,731.81,278.25Z" transform="translate(-91.18 0.24)"/><ellipse class="cls-3" cx="645.6" cy="266.16" rx="5.22" ry="5.08"/><polygon class="cls-3" points="602.19 466.25 420.04 466.25 418.67 343.01 604.57 343.01 602.19 466.25"/><polygon class="cls-24" points="524.56 353.01 524.56 459.73 426.16 459.73 424.23 353.24 524.56 353.01"/><polygon class="cls-24" points="598.11 347.51 598.11 455.76 528.65 454.51 528.65 347.51 598.11 347.51"/><polygon class="cls-3" points="555.93 405.86 592.64 405.86 594.76 356.11 555.93 356.11 555.93 405.86"/><polygon class="cls-25" points="558.97 398.29 590.06 398.29 591.43 360.83 558.97 360.83 558.97 398.29"/><polygon class="cls-3" points="533.49 448.57 591.43 448.57 594.76 413.77 535.16 413.77 533.49 413.77 533.49 448.57"/><polygon class="cls-26" points="537.43 443.26 589.76 445.47 590.52 415.54 537.43 415.54 537.43 443.26"/><rect class="cls-3" x="430.2" y="424.09" width="86.3" height="30.38"/><rect class="cls-18" x="441.42" y="426.16" width="71.44" height="25.22"/><polygon class="cls-27" points="494.36 493.89 494.36 469.12 526.81 469.12 526.81 494.15 494.36 494.15 494.36 493.89"/><polyline class="cls-28" points="473.51 500.49 473.51 491.85 549.68 494.15 549.68 499.78"/><path class="cls-27" d="M503.73,340.78V467.83a3.59,3.59,0,0,0,3.64,3.54h188a3.59,3.59,0,0,0,3.64-3.54l1.21-129.41a3.59,3.59,0,0,0-3.64-3.54l-189.17,2.36A3.59,3.59,0,0,0,503.73,340.78Zm6.12,2h185.9L693.37,466H511.22Z" transform="translate(-91.18 0.24)"/><polygon class="cls-3" points="520.01 357.6 520.01 366.63 485.86 364.93 485.86 357.6 520.01 357.6"/><polygon class="cls-3" points="520.01 370.54 520.01 379.56 485.86 380.98 485.86 370.54 520.01 370.54"/><polygon class="cls-3" points="506.95 390.94 506.95 384.57 485.86 382.51 485.86 390.94 506.95 390.94"/><polygon class="cls-3" points="481.84 357.6 427.58 357.6 427.58 409.37 480.08 408.39 481.84 357.6"/><polygon class="cls-29" points="467.02 398.29 430.2 398.29 430.2 360.83 469.78 360.83 467.02 398.29"/><polygon class="cls-3" points="427.58 419.37 427.58 413.77 481.84 412.3 481.84 418.41 427.58 419.37"/><polygon class="cls-30" points="424.12 347.51 524.56 347.51 524.56 353.01 424.23 353.24 424.12 347.51"/><rect class="cls-3" x="440.02" y="348.8" width="3.09" height="3"/><rect class="cls-3" x="433.07" y="348.8" width="3.09" height="3"/><rect class="cls-3" x="426.12" y="348.8" width="3.09" height="3"/><rect class="cls-3" x="508.76" y="349.12" width="2.86" height="2.78"/><polygon class="cls-31" points="665.47 509.38 670.95 530.89 677.09 530.89 610.16 781.61 619.15 781.61 688.79 532.27 690.79 532.27 766 783.55 777.7 782.58 700.78 531.44 709.91 531.44 712.62 509.38 665.47 509.38"/><polygon class="cls-32" points="671.24 519.93 672.66 529.08 707.91 529.08 708.77 518.12 671.24 519.93"/><polygon class="cls-31" points="632.32 727.5 749.93 721.97 754.86 736.72 630.24 735.06 632.32 727.5"/><polygon class="cls-3" points="252.39 460.4 231.03 460.4 230.16 497.46 248.92 496.65 252.39 460.4"/><polygon class="cls-4" points="263.7 496.02 258.44 460.4 252.39 460.4 248.92 496.65 263.7 496.02"/><polygon class="cls-3" points="252.67 457.5 231.09 457.5 231.03 460.4 252.39 460.4 252.67 457.5"/><polygon class="cls-3" points="230.16 497.46 230.12 499.26 248.68 499.26 248.92 496.65 230.16 497.46"/><polygon class="cls-4" points="261.78 457.5 252.67 457.5 252.39 460.4 258.44 460.4 263.7 496.02 248.92 496.65 248.68 499.26 266.35 499.26 261.78 457.5"/><polygon class="cls-33" points="74.11 472.15 192.81 477.76 192.2 471.88 74.32 469.37 74.11 472.15"/><polygon class="cls-34" points="190.61 456.58 75.06 459.45 74.32 469.37 192.2 471.88 190.63 456.58 190.61 456.58"/><path class="cls-35" d="M546.14,264.82V237.9c0-22-18.36-39.88-41-39.88h0c-22.65,0-41,17.85-41,39.88v26.92Z" transform="translate(-91.18 0.24)"/><path class="cls-36" d="M522.88,212.18s-12-15.57-32.71-3c-17.21,10.45-25.56,30.31-22.75,52.18,0,0,87.69-1.64,55.46-49.2Z" transform="translate(-91.18 0.24)"/><polyline class="cls-35" points="427.62 201.82 426.97 170.5 415 168.45 415 0 411.61 0 411.61 168.45 399.63 170.5 398.98 201.82"/><path class="cls-36" d="M492.86,197.34s2.47-.38,9.73-1.8V175.18h-7.68a2.09,2.09,0,0,0-1.34,1.81C493.57,178.3,492.86,197.34,492.86,197.34Z" transform="translate(-91.18 0.24)"/><path class="cls-37" d="M461.51,268.09a.8.8,0,0,0,.81.79h84.82a.79.79,0,0,0,.8-.79V265.6a.79.79,0,0,0-.8-.78H462.32a.79.79,0,0,0-.81.78Z" transform="translate(-91.18 0.24)"/><path class="cls-35" d="M944,264.82V237.9c0-22-18.37-39.88-41-39.88h0c-22.66,0-41,17.85-41,39.88v26.92Z" transform="translate(-91.18 0.24)"/><path class="cls-36" d="M920.7,212.18s-12-15.57-32.71-3c-17.22,10.45-25.56,30.31-22.75,52.18,0,0,87.68-1.64,55.46-49.2Z" transform="translate(-91.18 0.24)"/><polyline class="cls-35" points="825.44 201.82 824.79 170.5 812.81 168.45 812.81 0 809.43 0 809.43 168.45 797.45 170.5 796.8 201.82"/><path class="cls-36" d="M890.68,197.34s2.47-.38,9.72-1.8V175.18h-7.67a2.09,2.09,0,0,0-1.35,1.81C891.38,178.3,890.68,197.34,890.68,197.34Z" transform="translate(-91.18 0.24)"/><path class="cls-37" d="M859.33,268.09a.8.8,0,0,0,.81.79H945a.8.8,0,0,0,.81-.79V265.6a.79.79,0,0,0-.81-.78H860.14a.79.79,0,0,0-.81.78Z" transform="translate(-91.18 0.24)"/><polygon class="cls-31" points="434.32 642.78 482.31 808.3 478.99 808.3 421.56 642.78 434.32 642.78"/><path class="cls-38" d="M404.14,645.19c-34.37-151.53-.22-216.52,50.16-220,87.26-6.05,104.56,87.59,112.56,181.08,1.1,12.94.1,26.87,0,38.93Z" transform="translate(-91.18 0.24)"/><polygon class="cls-31" points="577.51 635.34 628.3 805.32 623.96 805.32 564.24 635.34 577.51 635.34"/><polygon class="cls-32" points="578.02 645.43 572.91 648.74 623.45 798.62 578.02 645.43"/><polygon class="cls-31" points="475.69 644.03 417.23 808.3 413.4 808.3 462.91 642.78 475.69 644.03"/><polygon class="cls-32" points="471.84 648.74 466.48 648.74 416.52 797.85 471.84 648.74"/><polygon class="cls-31" points="346.02 642.78 287.82 810.03 283.74 810.03 333.76 642.78 346.02 642.78"/><polygon class="cls-31" points="316.74 719 319.62 712.39 593.24 712.39 594.39 716.55 316.74 719"/><path class="cls-39" d="M415.17,632.37s115.69-34.28,109.56-114.49S417.44,423.47,409.92,488,415.17,632.37,415.17,632.37Z" transform="translate(-91.18 0.24)"/><path class="cls-3" d="M565.32,605.57,701.1,612v0l-136.61,7Z" transform="translate(-91.18 0.24)"/><path class="cls-40" d="M701.1,612c-.09.48-4.11,21.6-6.38,24.55L563,642.54,564.49,619Z" transform="translate(-91.18 0.24)"/><path class="cls-41" d="M768.51,455.16v-5.3c0-17.47,8.4-31.64,18.76-31.64S806,432.39,806,449.86v5.3" transform="translate(-91.18 0.24)"/><path class="cls-42" d="M817.81,454c-3,25.91-15.57,45-30.6,45s-27.48-19.25-30.56-45Z" transform="translate(-91.18 0.24)"/><path class="cls-43" d="M761.23,456s36.7.69,39,10.32-3.84,18.09-6.57,21-9.91,7.67-13.25,6S764.16,481.21,761.23,456Z" transform="translate(-91.18 0.24)"/><polygon class="cls-22" points="627.56 338.92 626.21 346.01 755.64 344.89 755.64 340.6 627.56 338.92"/></svg>